<?xml version="1.0" encoding="UTF-8" standalone="no"?>
<!-- Created with Inkscape (http://www.inkscape.org/) -->

<svg
   version="1.1"
   id="svg2"
   width="2266.6667"
   height="1333.3333"
   viewBox="0 0 2266.6667 1333.3333"
   xmlns="http://www.w3.org/2000/svg"
   xmlns:svg="http://www.w3.org/2000/svg">
  <defs
     id="defs6">
    <clipPath
       clipPathUnits="userSpaceOnUse"
       id="clipPath22">
      <path
         d="M 0,1000 H 1700 V 0 H 0 Z"
         id="path20" />
    </clipPath>
    <clipPath
       clipPathUnits="userSpaceOnUse"
       id="clipPath222">
      <path
         d="M 0,1000 H 1700 V 0 H 0 Z"
         id="path220" />
    </clipPath>
  </defs>
  <g
     id="g8"
     transform="matrix(1.3333333,0,0,-1.3333333,0,1333.3333)">
    <path
       d="M 0.914,0 H 1700 V 1000 H 0.914 Z"
       style="fill:#f4e89f;fill-opacity:1;fill-rule:nonzero;stroke:none"
       id="path10" />
    <g
       id="g16">
      <g
         id="g18"
         clip-path="url(#clipPath22)">
        <g
           id="g24"
           transform="translate(1464.9475,708.624)">
          <path
             d="m 0,0 c 0.002,-0.314 -0.033,-0.665 -0.123,-1.062 -0.696,-3.076 0.564,-6.753 3.288,-9.596 2.717,-2.835 6.467,-4.66 9.768,-6.147 l 0.153,-0.069 c 1.175,-0.529 2.391,-1.076 3.506,-1.931 0.59,-0.453 1.107,-0.961 1.569,-1.503 1.551,1.751 3.56,3.158 5.648,4.243 0.851,0.443 1.721,0.843 2.601,1.223 0.039,1.96 0.068,3.82 -0.143,5.663 -0.64,5.585 -3.391,10.552 -6.31,15.806 C 19.542,6.568 19.127,6.51 18.712,6.451 16.033,6.071 8.315,4.285 4.458,5.948 3.39,3.695 1.877,1.652 0,0"
             style="fill:#bb5325;fill-opacity:1;fill-rule:nonzero;stroke:none"
             id="path26" />
        </g>
        <g
           id="g28"
           transform="translate(1494.8546,695.21)">
          <path
             d="m 0,0 c 1.619,0.648 3.232,1.31 4.784,2.101 3.422,1.745 6.518,4.107 10.044,5.63 5.929,2.562 12.659,2.582 18.767,4.685 12.587,4.332 20.625,16.648 32.13,23.345 6.925,4.03 14.311,6.637 19.537,12.711 3.693,4.292 5.302,10.075 5.47,15.735 0.168,5.66 -0.993,11.269 -2.278,16.784 -0.179,0.77 -0.378,1.572 -0.895,2.168 -1.183,1.364 -3.542,0.973 -4.805,-0.316 C 81.491,81.554 81.038,79.699 80.636,77.94 79.072,71.102 77.508,64.264 75.944,57.426 75.611,55.971 75.267,54.487 74.484,53.215 73.716,51.965 72.566,50.994 71.36,50.159 66.031,46.472 59.485,45.139 53.348,43.063 45.953,40.56 39.016,36.899 32.395,32.798 26.709,29.276 20.806,24.032 13.7,24.368 12.111,24.443 10.483,24.749 8.953,24.31 7.829,23.988 6.857,23.289 5.797,22.797 4.18,22.047 2.386,21.788 0.622,21.539 -1.674,21.213 -3.971,20.888 -6.267,20.563 -3.525,15.6 -0.855,10.445 -0.189,4.63 -0.01,3.075 0.015,1.523 0,0"
             style="fill:#bb5325;fill-opacity:1;fill-rule:nonzero;stroke:none"
             id="path30" />
        </g>
        <g
           id="g32"
           transform="translate(1402.1658,691.9436)">
          <path
             d="m 0,0 c 1.01,-1.236 1.754,-2.635 2.373,-3.849 2.334,-4.581 5.285,-11.396 4.492,-18.404 0.592,0.328 1.224,0.638 1.9,0.927 1.061,0.454 2.143,0.837 3.19,1.208 1.543,0.546 3.001,1.063 4.351,1.775 2.762,1.458 5.074,3.724 7.523,6.124 3.056,2.994 6.207,6.08 10.354,7.524 -0.221,-0.077 -2.19,2.746 -2.42,3.047 -0.827,1.083 -1.631,2.182 -2.405,3.303 -1.682,2.432 -3.101,4.977 -4.874,7.375 -2.141,2.896 -2.572,3.958 -3.298,7.433 l -0.165,1.891 c -0.055,0.618 0.047,1.24 0.294,1.809 C 17.569,18.024 14.399,14.522 11.202,11.49 10.216,10.555 9.139,9.721 7.995,8.989 4.583,6.804 1.281,4.449 -1.9,1.939 -1.235,1.351 -0.588,0.72 0,0"
             style="fill:#bb5325;fill-opacity:1;fill-rule:nonzero;stroke:none"
             id="path34" />
        </g>
        <g
           id="g36"
           transform="translate(1601.4714,565.5383)">
          <path
             d="m 0,0 c -3.618,3.933 -7.366,6.439 -12.558,8.103 -1.493,0.478 -3.03,0.862 -4.42,1.587 -3.494,1.823 -5.377,5.044 -8.548,7.384 -0.578,0.426 -1.176,0.817 -1.788,1.183 0.14,-2.129 0.039,-4.289 -0.453,-6.418 -0.538,-2.329 -1.462,-4.021 -2.825,-5.173 -1.546,-1.307 -3.402,-1.739 -5.235,-1.739 -1.758,0 -3.495,0.397 -4.918,0.8 -0.096,0.027 -0.192,0.056 -0.288,0.084 -0.109,-2.956 3.006,-5.528 6.052,-6.323 3.389,-0.884 7.12,-0.635 10.204,-2.297 2.691,-1.449 4.461,-4.13 6.762,-6.142 3.782,-3.306 11.508,-5.341 16.379,-3.265 2.272,0.968 3.462,3.247 3.669,5.696 C 2.232,-4.168 1.525,-1.658 0,0"
             style="fill:#bb5325;fill-opacity:1;fill-rule:nonzero;stroke:none"
             id="path38" />
        </g>
        <g
           id="g40"
           transform="translate(1367.4244,540.3774)">
          <path
             d="m 0,0 c -0.604,1.441 -1.142,2.987 -0.951,4.533 -0.619,0.114 -1.22,0.284 -1.801,0.469 -2.537,0.809 -4.993,1.893 -7.299,3.222 -0.26,0.15 -0.517,0.302 -0.775,0.455 -0.852,0.505 -1.657,0.983 -2.488,1.318 -1.932,0.78 -4.245,0.902 -7.164,0.367 -0.38,-0.568 -0.771,-1.129 -1.179,-1.68 -3.778,-5.098 -8.955,-9.394 -15.1,-10.977 -3.873,-0.997 -7.072,-0.864 -10.603,-2.74 -2.801,-1.488 -2.508,-5.955 -0.221,-8.154 2.286,-2.199 5.653,-2.736 8.795,-3.168 9.912,-1.364 19.825,-2.728 29.737,-4.092 3.283,-0.452 6.921,-0.825 9.638,1.072 2.889,2.017 3.727,6.037 3.125,9.508 C 3.112,-6.395 1.362,-3.25 0,0"
             style="fill:#bb5325;fill-opacity:1;fill-rule:nonzero;stroke:none"
             id="path42" />
        </g>
        <g
           id="g44"
           transform="translate(1560.9398,574.8211)">
          <path
             d="m 0,0 c 0.244,-0.071 0.489,-0.144 0.733,-0.213 3.408,-0.966 5.621,-0.886 6.964,0.25 0.769,0.649 1.319,1.729 1.682,3.302 0.566,2.446 0.517,4.981 0.157,7.498 -3.612,1.585 -7.457,2.77 -10.882,4.737 -4.888,2.808 -8.722,7.087 -12.919,10.851 -4.196,3.765 -9.138,7.181 -14.76,7.595 -3.319,0.244 -6.391,0.568 -9.125,2.465 -6.542,4.54 -13.525,9.678 -15.702,17.337 -0.604,2.128 -0.828,4.423 -1.844,6.361 -0.143,-2.053 -0.433,-4.105 -0.959,-6.142 -1.621,-6.289 -5.53,-11.313 -10.454,-13.438 -4.202,-1.814 -8.706,-1.535 -13.063,-1.264 -3.834,0.238 -7.455,0.462 -10.75,-0.671 -2.001,-0.688 -3.822,-1.868 -5.667,-3.303 2.22,-1.161 4.768,-1.934 7.271,-2.634 5.191,-1.451 10.693,-2.092 15.438,-4.648 6.253,-3.369 10.66,-9.8 17.339,-12.216 7.551,-2.733 16.788,0.15 23.426,-4.37 C -23.459,4.921 -11.273,7.164 -1.251,1.161 -0.757,0.865 -0.243,0.508 0,0"
             style="fill:#bb5325;fill-opacity:1;fill-rule:nonzero;stroke:none"
             id="path46" />
        </g>
        <g
           id="g48"
           transform="translate(1428.3474,706.9237)">
          <path
             d="m 0,0 c 0.77,-1.9 1.871,-3.578 3.894,-4.602 2.799,-1.418 5.903,-1.37 8.87,-0.662 3.297,0.786 6.545,1.776 9.719,2.964 -0.625,-0.661 -1.224,-1.375 -1.889,-1.996 -1.775,-1.657 -3.894,-3.081 -6.104,-4.089 -0.79,-0.363 -1.621,-0.657 -2.474,-0.913 -0.434,-0.108 -0.864,-0.228 -1.31,-0.305 -0.222,-0.04 -0.439,-0.09 -0.668,-0.121 L 9.343,-9.805 C 7.839,-9.948 6.32,-9.864 4.832,-9.544 c 3.65,-5.639 8.166,-10.769 12.537,-15.547 1.183,2.322 3.107,4.177 4.985,5.988 1.372,1.324 2.669,2.574 3.659,3.97 2.362,3.331 3.014,7.659 3.368,11.839 0.117,1.391 0.261,3.097 1.28,4.516 0.633,0.881 1.456,1.453 2.182,1.958 0.125,0.087 0.251,0.174 0.374,0.263 2.066,1.478 3.622,3.564 4.639,5.878 0.247,0.562 0.523,1.265 0.809,2.019 10e-4,-0.106 0.003,-0.211 0.011,-0.316 0.131,0.409 0.239,0.825 0.335,1.244 0.005,0.013 0.01,0.027 0.014,0.04 -10e-4,0 -0.003,10e-4 -0.005,10e-4 -0.088,0.028 -0.178,0.054 -0.268,0.078 -0.518,0.136 -1.068,0.217 -1.637,0.235 -1.605,0.051 -3.352,-0.331 -5.669,-1.23 l -0.039,-0.015 c -0.639,-0.249 -1.514,-0.59 -2.52,-0.473 -2.474,0.284 -3.843,2.801 -3.488,6.413 l 1.197,12.169 c 0.179,1.819 0.001,2.919 -0.529,3.269 -0.361,0.238 -1.052,0.242 -1.614,0.22 -1.246,-0.049 -2.487,-0.22 -3.802,-0.401 -1.219,-0.168 -2.48,-0.342 -3.764,-0.413 -3.484,-0.197 -6.317,0.498 -8.419,2.061 -0.203,0.151 -0.4,0.317 -0.591,0.492 C 7.33,34.002 6.831,33.312 6.396,32.675 0.353,23.852 -1.108,16.457 -0.071,6.192 -0.072,6.206 -0.576,1.421 0,0"
             style="fill:#bb5325;fill-opacity:1;fill-rule:nonzero;stroke:none"
             id="path50" />
        </g>
        <g
           id="g52"
           transform="translate(1445.0402,742.5531)">
          <path
             d="m 0,0 c 1.144,0.064 2.281,0.221 3.485,0.386 1.339,0.185 2.723,0.375 4.138,0.431 1.148,0.047 2.482,-0.012 3.664,-0.792 2.549,-1.68 2.204,-5.188 2.074,-6.509 l -1.197,-12.168 c -0.155,-1.57 0.22,-2.508 0.395,-2.616 0,0 0.012,-0.003 0.032,-0.006 0.151,-0.012 0.581,0.149 0.864,0.26 l 0.041,0.015 c 1.866,0.725 4.353,1.541 7.032,1.464 1.056,-0.032 2.067,-0.211 3.004,-0.518 0.357,0.946 0.644,1.643 0.791,1.805 0.907,0.996 1.55,2.891 2.015,4.15 0.565,1.53 0.925,3.14 1.049,4.767 0.24,3.15 -0.426,6.399 -2.233,9.025 C 22.245,3.92 17.068,5.94 12.065,7.075 8.281,7.933 4.253,8.408 0.573,7.179 -1.872,6.362 -4.418,4.159 -6.589,1.76 -6.45,1.622 -6.304,1.494 -6.152,1.381 -4.72,0.316 -2.651,-0.148 0,0"
             style="fill:#bb5325;fill-opacity:1;fill-rule:nonzero;stroke:none"
             id="path54" />
        </g>
        <g
           id="g56"
           transform="translate(1437.9628,684.5446)">
          <path
             d="M 0,0 C 0,0 0.001,0.001 0,0.001 -0.021,0.021 -0.02,0.02 0,0"
             style="fill:#bb5325;fill-opacity:1;fill-rule:nonzero;stroke:none"
             id="path58" />
        </g>
        <g
           id="g60"
           transform="translate(1480.9824,617.6275)">
          <path
             d="m 0,0 c 4.131,-0.257 8.033,-0.498 11.472,0.986 3.946,1.703 7.111,5.859 8.467,11.116 0.725,2.814 0.952,5.741 0.965,8.686 -1.802,1.12 -3.912,1.906 -5.806,2.898 -4.109,2.153 -7.519,5.615 -9.611,9.755 -0.937,1.855 -1.624,3.943 -1.285,5.994 0.205,1.233 0.773,2.404 0.8,3.653 0.064,3.024 -2.866,5.105 -5.309,6.888 -2.368,1.728 -5.605,5.875 -3.899,9.041 0.001,0.002 0.002,0.004 0.003,0.007 2.817,0.963 2.988,4.762 3.92,7.589 0.111,0.337 0.245,0.664 0.388,0.985 -0.469,0.707 -1.014,1.34 -1.662,1.836 -0.795,0.61 -1.777,1.052 -2.818,1.52 l -0.154,0.07 c -3.599,1.621 -7.702,3.627 -10.849,6.911 -2.417,2.522 -3.927,5.616 -4.33,8.667 -0.032,-0.282 -0.058,-0.574 -0.083,-0.872 -0.396,-4.691 -1.153,-9.566 -3.997,-13.577 -1.178,-1.661 -2.654,-3.084 -4.082,-4.461 -2.326,-2.243 -4.524,-4.362 -4.985,-7.104 l -0.588,-3.499 -2.403,2.611 c -2.325,2.527 -6.879,6.926 -7.174,7.217 0.099,-0.124 -6.347,-4.177 -9.536,-7.302 -2.519,-2.468 -5.123,-5.021 -8.333,-6.714 -1.574,-0.831 -3.22,-1.414 -4.813,-1.978 -1.022,-0.362 -1.988,-0.705 -2.93,-1.105 -1.482,-2.728 -2.816,-5.531 -3.572,-8.531 -1.201,-4.768 -1.01,-10.154 -4.03,-14.033 -0.745,-0.957 -1.629,-1.747 -2.6,-2.433 l 0.708,-0.076 c 3.233,-0.344 6.576,-0.7 9.806,-1.794 5.015,-1.7 9.227,-5.037 12.687,-8.078 4.83,-4.245 10.768,-10.112 13.835,-17.86 0.615,-1.553 1.099,-3.154 1.451,-4.781 3.101,1.859 5.985,4.079 8.557,6.622 3.174,-0.198 6.43,-0.618 9.605,-0.816 0.627,-1.369 1.499,-2.493 2.544,-3.433 2.397,1.945 4.751,3.58 7.547,4.542 C -8.146,0.505 -4.005,0.248 0,0"
             style="fill:#bb5325;fill-opacity:1;fill-rule:nonzero;stroke:none"
             id="path62" />
        </g>
        <g
           id="g64"
           transform="translate(1423.0557,629.8911)">
          <path
             d="m 0,0 c -3.202,2.814 -7.073,5.894 -11.508,7.397 -2.866,0.971 -6.014,1.306 -9.059,1.63 l -5.851,0.623 c -1.19,-0.533 -2.381,-1.063 -3.514,-1.663 -7.635,-4.041 -14.151,-11.908 -19.298,-18.726 -1.821,-2.411 -2.695,-5.384 -3.561,-8.278 -4.553,-15.218 -9.828,-30.219 -15.801,-44.938 -1.573,-3.877 -3.212,-7.76 -5.228,-11.418 1.997,0.104 4.13,-0.097 6.175,-0.922 1.075,-0.434 2.033,-1.002 2.96,-1.551 0.245,-0.146 0.491,-0.291 0.737,-0.433 2.092,-1.206 4.319,-2.189 6.62,-2.922 0.738,-0.236 1.5,-0.44 2.181,-0.442 0.208,0.311 0.424,0.617 0.639,0.918 6.751,9.482 13.495,19.177 18.032,29.955 2.418,5.746 3.095,11.53 4.772,17.409 1.662,5.828 6.774,5.045 12.774,6.132 5.242,0.949 10.631,0.37 15.947,0.719 6.028,0.396 11.959,2.038 17.366,4.728 -0.317,1.792 -0.812,3.554 -1.484,5.253 C 10.718,-11.022 6.74,-5.924 0,0"
             style="fill:#bb5325;fill-opacity:1;fill-rule:nonzero;stroke:none"
             id="path66" />
        </g>
        <g
           id="g68"
           transform="translate(1324.5768,618.7676)">
          <path
             d="m 0,0 c 2.463,1.223 4.937,2.452 7.186,4.033 1.741,1.223 3.338,2.65 5.146,3.771 2.834,1.759 6.082,2.705 9.251,3.745 6.295,2.067 12.445,4.578 18.388,7.508 3.035,1.497 6.03,3.111 8.735,5.145 3.058,2.298 5.698,5.095 8.46,7.741 6.53,6.253 14.602,11.072 22.865,15.235 0.389,1.134 0.699,2.285 0.881,3.455 0.981,6.3 -1.839,12.786 -4.046,17.117 -0.561,1.102 -1.175,2.259 -1.968,3.228 -0.561,0.687 -1.227,1.302 -1.944,1.91 C 65.394,66.568 58.58,59.354 52.721,51.43 50.078,47.855 47.523,44.037 43.768,41.656 40.987,39.892 37.743,39.048 34.627,37.982 25.012,34.693 16.207,29.062 9.189,21.712 7.868,20.328 6.561,18.848 4.831,18.033 0.342,15.918 -5.752,18.791 -9.585,15.64 c -1.358,-1.116 -2.113,-2.786 -2.823,-4.394 -1.013,-2.297 -2.026,-4.594 -3.039,-6.891 -0.906,-2.055 -1.819,-4.337 -1.482,-6.492 l -19.244,-17.44 c -7.036,3.955 -19.439,0.511 -29.67,-8.76 -11.622,-10.533 -16.038,-24.596 -9.862,-31.41 6.175,-6.815 20.604,-3.8 32.226,6.732 10.23,9.272 14.875,21.277 11.63,28.667 l 21.515,19.498 c -0.096,-0.146 -0.197,-0.291 -0.31,-0.435 C -7.096,-3.523 -3.548,-1.762 0,0"
             style="fill:#bb5325;fill-opacity:1;fill-rule:nonzero;stroke:none"
             id="path70" />
        </g>
        <g
           id="g72"
           transform="translate(991.348,775.4648)">
          <path
             d="M 0,0 C -0.019,0.027 -0.039,0.055 -0.059,0.082 -0.062,0.047 -0.064,0.013 -0.067,-0.022 Z"
             style="fill:#bb5325;fill-opacity:1;fill-rule:nonzero;stroke:none"
             id="path74" />
        </g>
        <g
           id="g76"
           transform="translate(862.1319,690.0153)">
          <path
             d="m 0,0 c 0.333,-3.194 0.841,-6.541 2.808,-9.08 3.042,-3.925 8.575,-4.75 13.538,-4.905 15.359,-0.48 30.818,2.61 44.813,8.956 0.665,0.302 1.332,0.613 2,0.929 -2.663,6.858 -7.239,13.013 -11.038,17.711 -1.513,1.87 -2.895,4.109 -4.232,6.275 -1.049,1.7 -3.063,4.962 -4.719,6.779 -0.793,-0.585 -1.584,-1.173 -2.379,-1.755 -15.738,-11.522 -5.007,20.702 -2.774,26.815 2.057,5.631 4.282,11.288 4.909,17.249 0.323,3.077 0.214,6.185 0.494,9.265 1.183,12.992 8.908,20.94 6.681,34.76 -0.269,1.665 -2.917,9.563 -6.081,17.008 0.633,-0.562 1.266,-1.124 1.896,-1.69 -0.002,2.679 -0.341,5.319 -1.529,7.567 l 32.225,61.897 c 14.536,-2.664 24.694,-9.575 36.895,12.565 13.862,25.151 4.086,44.353 -10.661,52.48 -14.747,8.128 -28.879,2.103 -42.741,-23.048 -12.202,-22.139 -3.833,-25.439 6.182,-36.307 L 35.363,144.218 c -0.315,0.106 -0.612,0.109 -0.886,-0.008 -3.176,-1.354 -5.384,-4.717 -5.364,-8.17 -0.883,1.476 -3.226,1.361 -4.508,0.214 -1.281,-1.147 -1.772,-2.912 -2.204,-4.577 -0.807,-3.115 -1.615,-6.23 -2.423,-9.345 -0.401,-1.547 -0.814,-3.123 -1.679,-4.467 -0.85,-1.321 -2.086,-2.341 -3.086,-3.552 -5.008,-6.066 1.789,-16.095 9.261,-18.55 C 5.354,68.078 -3.492,33.464 0,0"
             style="fill:#bb5325;fill-opacity:1;fill-rule:nonzero;stroke:none"
             id="path78" />
        </g>
        <g
           id="g80"
           transform="translate(953.2731,407.3199)">
          <path
             d="m 0,0 c 6.291,-0.324 12.536,-1.172 18.574,-1.992 9.559,-1.3 18.591,-2.525 27.584,-1.8 9.886,0.797 19.584,4.023 27.998,9.271 4.36,2.719 7.928,6.291 11.507,9.924 3.757,3.815 7.5,7.83 9.4,12.936 2.045,5.498 1.705,11.578 0.951,17.395 -2.1,16.202 -1.909,32.531 -0.362,48.808 0.15,1.578 0.314,3.304 0,4.109 -0.137,0.348 -0.716,1.296 -3.152,2.587 -6.262,3.319 -14.471,4.339 -23.115,2.876 C 60.603,102.626 52.164,98.867 45.067,95.385 44.4,95.058 43.729,94.719 43.058,94.374 43.891,72.617 43.043,50.592 41.416,29.86 39.692,36.03 32.658,38.865 26.406,40.262 6.481,44.714 -14.706,43.357 -33.9,36.4 -42.355,33.335 -50.612,29.177 -59.058,26.096 L -61.181,7.937 c -0.699,-5.989 -1.417,-12.16 -0.957,-18.005 4.904,1.163 9.892,1.929 14.921,2.454 C -32.242,-1.802 -16.049,0.826 0,0"
             style="fill:#bb5325;fill-opacity:1;fill-rule:nonzero;stroke:none"
             id="path82" />
        </g>
        <g
           id="g84"
           transform="translate(954.3994,359.4266)">
          <path
             d="m 0,0 c -0.458,0.253 -1.807,0.443 -2.793,0.582 -2.979,0.418 -7.481,1.05 -10.309,5.213 -2.787,4.101 -2.376,9.486 1.127,14.772 3.736,5.637 9.239,10.159 15.495,12.731 0.446,0.184 0.897,0.358 1.349,0.531 0.88,0.339 1.718,0.661 2.285,0.994 l 0.165,0.235 c -3.042,0.355 -6.045,0.643 -9.066,0.798 -9.916,0.512 -19.897,-0.457 -29.539,-2.816 -1.304,-1.977 -2.303,-3.986 -2.633,-5.808 -0.306,-1.691 -0.43,-3.429 -1.003,-5.05 -0.641,-1.813 -1.811,-3.383 -2.928,-4.949 -10.149,-14.23 -17.187,-30.668 -20.481,-47.834 -0.397,-2.072 -0.651,-4.487 0.776,-6.041 1.631,-1.777 4.679,-1.365 6.577,0.124 1.899,1.489 3.005,3.736 4.31,5.765 4.78,7.427 13.056,12.494 21.844,13.375 3.51,0.352 7.094,0.076 10.536,0.846 7.911,1.771 10.347,7.535 15.286,12.746 0.006,0.336 0.003,0.665 -0.016,0.98 C 0.884,-1.173 0.285,-0.158 0,0"
             style="fill:#bb5325;fill-opacity:1;fill-rule:nonzero;stroke:none"
             id="path86" />
        </g>
        <g
           id="g88"
           transform="translate(979.8651,385.2039)">
          <path
             d="M 0,0 C 0.292,2.394 0.568,4.696 0.628,6.881 -1.617,7.125 -3.849,7.405 -6.064,7.698 -6.339,4.531 -8.135,1.485 -11.053,-0.6 c -1.798,-1.282 -3.693,-2.011 -5.216,-2.598 -0.367,-0.14 -0.732,-0.281 -1.093,-0.429 -4.051,-1.665 -7.613,-4.592 -10.032,-8.242 -0.298,-0.45 -0.506,-0.845 -0.65,-1.168 0.48,-0.085 1.028,-0.162 1.462,-0.224 2.025,-0.284 4.545,-0.637 6.957,-1.974 2.764,-1.531 4.869,-4.135 6.072,-7.352 4.293,1.715 8.95,2.926 13.437,4.284 0.25,0.075 0.501,0.147 0.751,0.222 C -1.438,-11.861 -0.68,-5.574 0,0"
             style="fill:#bb5325;fill-opacity:1;fill-rule:nonzero;stroke:none"
             id="path90" />
        </g>
        <g
           id="g92"
           transform="translate(954.1638,811.4287)">
          <path
             d="m 0,0 c -0.076,-7.543 2.422,-15.824 8.905,-19.681 2.75,-1.636 5.943,-2.316 8.983,-3.314 2.86,-0.94 5.615,-2.19 8.217,-3.701 0.947,5.729 2.538,11.48 5.487,16.861 0.959,1.75 2.024,3.403 3.053,5.002 1.227,1.906 2.371,3.684 3.199,5.378 C 37.425,0.556 37,0.565 36.571,0.574 33.475,0.638 29.966,0.711 26.546,1.703 23.903,2.469 15.481,7.53 15.238,13.681 c -0.313,7.925 4.89,13.769 12.947,14.54 1.485,0.143 3.12,0.173 4.851,0.206 1.17,0.022 2.485,0.046 3.686,0.116 3.313,7.081 10.629,9.699 16.772,11.826 -5.71,1.819 -11.936,2.236 -17.856,1.252 C 16.069,38.37 0.199,19.836 0,0"
             style="fill:#bb5325;fill-opacity:1;fill-rule:nonzero;stroke:none"
             id="path94" />
        </g>
        <g
           id="g96"
           transform="translate(857.0943,388.8505)">
          <path
             d="m 0,0 c -1.11,0.568 -2.503,1.014 -3.977,1.485 -2.21,0.707 -4.717,1.509 -7.132,2.987 -4.208,2.576 -7.219,6.729 -8.49,11.399 l -10.296,0.221 2.505,7.712 c 3.492,10.754 14.312,15.081 23.007,18.557 0.961,0.385 1.912,0.765 2.842,1.149 6.637,2.741 12.82,6.433 18.383,10.883 -0.506,3.513 -1.714,6.777 -4.12,9.423 -5.355,5.89 -14.979,6.125 -22.071,2.51 C -16.44,62.711 -21.487,56.11 -25.864,49.462 -30.242,42.814 -34.306,35.781 -40.3,30.544 c -5.94,-5.19 -13.73,-8.593 -17.813,-15.343 -4.337,-7.167 -3.367,-16.217 -2.255,-24.52 0.587,-4.379 0.413,-7.528 2.772,-11.263 2.359,-3.736 6.604,-6.298 11.022,-6.321 2.668,-0.013 5.254,0.844 7.783,1.691 5.742,1.923 11.666,3.95 16.135,8.035 1.812,1.656 3.364,3.634 5.448,4.93 6.155,3.827 15.966,1.261 19.855,7.376 0.312,0.49 0.56,1.014 0.773,1.556 C 2.539,-1.864 1.364,-0.698 0,0"
             style="fill:#bb5325;fill-opacity:1;fill-rule:nonzero;stroke:none"
             id="path98" />
        </g>
        <g
           id="g100"
           transform="translate(1000.863,831.0968)">
          <path
             d="m 0,0 c -0.032,-0.497 -0.044,-1.051 -0.391,-1.408 -0.222,-0.229 -0.542,-0.329 -0.849,-0.415 -3.402,-0.953 -6.951,-1.113 -10.487,-1.354 -2.422,-0.165 -2.327,-3.763 0.101,-3.794 0.029,0 0.058,-0.001 0.087,-0.001 4.93,-0.061 9.936,-0.414 14.603,-1.961 0.774,-0.256 1.301,-0.979 1.31,-1.794 0.06,-5.04 -0.332,-9.287 -2.649,-14.036 -2.297,-4.706 -5.519,-8.952 -7.537,-13.796 -2.619,-6.031 -4.266,-12.666 -3.396,-19.183 0.044,-0.335 0.116,-0.703 0.386,-0.906 0.257,-0.192 0.61,-0.17 0.929,-0.136 6.034,0.644 12.588,0.929 18.435,2.565 9.44,2.641 16.88,9.727 23.902,16.566 4.622,4.502 10.257,9.727 13.337,15.459 3.382,6.295 0.491,13.986 -2.417,20.514 -1.848,4.147 -4.239,8.773 -8.639,9.893 -3.153,0.802 -6.597,-0.47 -9.694,0.528 -2.546,0.82 -4.328,2.983 -6.143,4.991 -0.761,0.186 -1.326,0.324 -2.087,0.51 L 14.398,10.608 C 13.268,10.188 12.13,9.794 11.005,9.405 6.087,7.702 0.399,6.18 0,0"
             style="fill:#bb5325;fill-opacity:1;fill-rule:nonzero;stroke:none"
             id="path102" />
        </g>
        <g
           id="g104"
           transform="translate(860.1546,421.2209)">
          <path
             d="m 0,0 c -0.971,-0.401 -1.964,-0.799 -2.969,-1.2 -2.755,-1.102 -5.547,-2.219 -8.028,-3.494 l 0.194,-0.005 -0.46,-6.325 c -0.185,-2.548 1.208,-5.261 3.387,-6.595 1.176,-0.72 2.796,-1.238 4.51,-1.786 1.784,-0.57 3.806,-1.217 5.796,-2.236 3.225,-1.65 5.934,-4.171 7.933,-7.281 2.102,0.176 4.244,0.654 6.652,1.077 0.74,0.131 1.472,0.295 2.198,0.481 -0.991,7.842 -0.106,15.445 0.754,22.799 l 1.552,13.277 0.527,4.513 C 19.79,11.379 17.447,9.636 15.017,8.017 10.3,4.875 5.274,2.178 0,0"
             style="fill:#bb5325;fill-opacity:1;fill-rule:nonzero;stroke:none"
             id="path106" />
        </g>
        <g
           id="g108"
           transform="translate(1063.2856,470.6766)">
          <path
             d="m 0,0 c -2.343,-1.144 -2.799,-1.729 -2.883,-1.881 l -0.461,0.155 c 0.158,-4.914 0.316,-9.901 0.878,-14.785 0.569,-4.94 1.757,-9.882 1.23,-14.883 -1.053,-9.989 -8.206,-18.766 -14.995,-25.64 -3.342,-3.383 -7.005,-6.447 -10.919,-9.148 -7.817,-5.396 -16.645,-9.357 -25.912,-11.468 -3.234,-0.736 -6.519,-1.247 -9.825,-1.513 -2.636,-0.212 -5.26,-0.278 -7.869,-0.239 -0.098,-2.57 -0.401,-5.075 -0.7,-7.529 -0.594,-4.873 -1.155,-9.475 0.232,-13.194 0.021,-0.057 0.048,-0.113 0.07,-0.17 15.676,4.109 31.605,7.24 47.5,10.366 10.19,2.004 20.381,4.009 30.572,6.013 14.364,2.826 29.951,0.291 37.33,14.736 8.53,16.701 9.38,36.753 10.327,55.086 0.351,6.787 0.701,13.574 1.051,20.361 C 37.096,10.557 17.099,8.352 0,0"
             style="fill:#bb5325;fill-opacity:1;fill-rule:nonzero;stroke:none"
             id="path110" />
        </g>
        <g
           id="g112"
           transform="translate(1116.1526,642.4133)">
          <path
             d="m 0,0 c -0.78,-0.355 -1.563,-0.714 -2.354,-1.078 -1.02,-0.469 -2.038,-0.938 -3.058,-1.398 -9.739,-4.398 -18.995,-7.7 -27.858,-9.932 5.304,-1.855 10.578,-3.767 15.822,-5.67 3.514,-1.275 7.104,-2.575 10.687,-3.853 -0.287,4.473 0.184,8.932 0.14,13.707 C -4.564,-5.366 -2.349,-2.623 0,0"
             style="fill:#bb5325;fill-opacity:1;fill-rule:nonzero;stroke:none"
             id="path114" />
        </g>
        <g
           id="g116"
           transform="translate(1293.2196,663.5374)">
          <path
             d="m 0,0 c -0.99,2.214 -2.793,4.068 -3.346,6.43 -0.552,2.361 1.196,5.498 3.55,4.913 0.517,1.173 0.152,2.673 -0.848,3.476 -10.929,1.953 -20.581,1.58 -31.322,4.389 -10.432,2.728 -20.19,7.517 -29.866,12.275 -10.261,5.046 -20.521,10.092 -30.782,15.137 -19.886,9.779 -45.726,8.048 -58.505,26.154 -4.314,6.114 -11.858,9.453 -15.927,15.694 -0.383,-0.341 -0.767,-0.681 -1.131,-1.039 -7.293,-7.177 -10.723,-18.109 -13.677,-27.922 9.105,-4.835 18.847,-8.736 27.279,-14.676 5.034,-3.546 9.575,-7.803 14.891,-10.909 7.297,-4.263 15.689,-6.157 23.87,-8.27 21.53,-5.559 46.433,-12.431 67.202,-20.373 -1.919,-1.23 -2.235,-4.05 -1.32,-6.138 0.915,-2.087 2.735,-3.614 4.484,-5.076 4.795,-4.007 9.701,-8.381 11.799,-14.267 0.88,-2.467 1.272,-5.204 2.92,-7.239 1.648,-2.035 5.268,-2.782 6.719,-0.603 0.568,0.854 0.671,1.959 1.271,2.791 1.585,2.201 5.008,1.061 7.687,1.492 2.037,0.328 3.748,1.665 5.341,2.976 3.185,2.62 6.361,5.389 8.45,8.945 C 0.828,-8.284 1.683,-3.765 0,0"
             style="fill:#bb5325;fill-opacity:1;fill-rule:nonzero;stroke:none"
             id="path118" />
        </g>
        <g
           id="g120"
           transform="translate(1117.5487,555.0457)">
          <path
             d="m 0,0 c -1.93,11.498 0.993,23.25 0.101,34.874 -0.272,3.544 -0.544,7.087 -0.815,10.63 -0.1,1.302 -0.21,2.64 -0.79,3.81 -0.252,0.509 -0.583,0.965 -0.946,1.399 -1.437,0.446 -2.663,0.871 -3.594,1.195 -5.636,1.961 -11.368,4.04 -16.91,6.052 -9.377,3.401 -18.757,6.803 -28.257,9.849 -2.371,0.76 -4.749,1.498 -7.135,2.207 -2.11,0.628 -3.856,0.638 -6.009,0.89 -9.781,1.145 -19.213,4.213 -28.932,5.733 -6.134,0.959 -13.311,2.215 -19.324,-0.045 -4.993,-1.877 -8.277,-6.375 -11.135,-10.65 -4.884,-7.307 -7.172,-14.793 -7.748,-23.559 -0.103,-1.567 -0.164,-3.136 -0.198,-4.705 -0.157,-7.036 0.103,-14.093 1.085,-21.061 0.987,-7.007 2.698,-13.889 4.048,-20.835 2.26,-11.636 3.744,-23.752 4.625,-36.057 7.323,3.483 15.83,6.986 25.03,8.545 7.954,1.348 19.752,1.73 30.772,-4.11 4.475,-2.371 7.332,-5.265 8.732,-8.847 1.361,-3.476 1.039,-6.862 0.781,-9.582 -0.58,-6.119 -0.928,-12.251 -1.059,-18.384 18.49,8.519 39.742,10.878 59.671,6.747 0.457,8.845 0.914,17.69 1.371,26.535 0.38,7.366 0.759,14.778 -0.149,22.097 C 2.494,-11.458 0.97,-5.777 0,0"
             style="fill:#bb5325;fill-opacity:1;fill-rule:nonzero;stroke:none"
             id="path122" />
        </g>
        <g
           id="g124"
           transform="translate(1140.6035,672.5096)">
          <path
             d="m 0,0 c -3.05,5.214 -6.1,10.428 -9.15,15.642 -1.836,3.139 -3.779,6.393 -6.827,8.377 -5.731,3.73 -14.723,2.638 -18.12,8.572 -1.283,2.242 -1.355,4.89 -1.76,7.376 -0.574,3.518 -1.199,7.023 -2.164,10.459 -0.176,0.63 -0.37,1.272 -0.767,1.792 -0.285,0.373 -1.045,3.03 -1.226,4.312 0.054,0.178 0.109,0.356 0.164,0.536 -0.056,0.041 -0.11,0.084 -0.166,0.125 0.026,0.037 0.066,0.037 0.122,-0.011 3.794,10.713 7.58,21.701 15.879,29.867 1.494,1.471 3.074,2.798 4.705,4.028 -5.946,14.008 -17.488,25.577 -31.529,31.468 -3.683,1.545 -7.552,2.721 -11.528,3.096 -2.278,0.214 -4.499,0.25 -6.674,0.132 l 0.043,-0.446 c -0.099,0.996 -13.441,-5.454 -14.328,-6.015 -5.63,-3.557 -10.571,-8.085 -16.116,-11.766 -11.216,-7.447 -24.419,-11.212 -37.445,-14.616 -8.33,-2.176 -16.687,-4.249 -25.053,-6.282 -6.995,-1.701 -15.887,-2.067 -22.26,-5.263 -5.281,-2.648 -10.389,-6.068 -15.05,-9.69 -8.765,-6.81 -17.534,-13.619 -26.391,-20.309 2.085,-2.431 3.808,-5.221 5.315,-7.661 1.191,-1.93 2.317,-3.754 3.347,-5.028 4.197,-5.189 9.24,-11.98 12.519,-19.951 9.944,4.822 20.101,8.848 30.53,6.337 9.52,-2.293 16.897,-9.692 23.149,-17.229 4.365,-5.263 8.52,-10.878 10.708,-17.355 1.798,-5.323 1.981,-11.384 2.253,-17.412 2.203,0.043 4.399,-0.027 6.587,-0.187 15.782,0.072 31.268,-2.707 46.49,-6.848 15.012,-0.059 31.42,4.009 49.919,12.361 0.994,0.449 1.987,0.907 2.979,1.363 5.824,2.68 11.844,5.452 18.527,6.858 3.227,0.68 6.412,0.946 9.472,0.832 2.972,2.087 5.895,4.71 5.593,8.187 C 1.61,-2.779 0.795,-1.36 0,0"
             style="fill:#bb5325;fill-opacity:1;fill-rule:nonzero;stroke:none"
             id="path126" />
        </g>
        <g
           id="g128"
           transform="translate(509.5023,278.0665)">
          <path
             d="m 0,0 c -0.9,3.964 -1.32,8.028 -2.776,12.018 -5.171,14.179 -17.562,23.728 -25.882,35.894 -3.799,5.556 -6.741,11.643 -10.158,17.441 -0.688,1.167 -1.398,2.333 -2.126,3.493 -16.116,-0.772 -30.452,-4.556 -42.231,-11.243 -17.012,-9.656 -28.599,-25.951 -31.269,-42.865 2.92,-0.923 6.215,-1.295 10.689,-2.549 10.877,-3.048 22.256,-11.603 32.284,-16.862 10.781,-5.654 21.972,-11.689 30.239,-20.376 12.394,7.627 24.788,15.253 37.182,22.88 C -2.772,-1.384 -1.406,-0.591 0,0"
             style="fill:#5e3822;fill-opacity:1;fill-rule:nonzero;stroke:none"
             id="path130" />
        </g>
        <g
           id="g132"
           transform="translate(512.58,147.9493)">
          <path
             d="m 0,0 c 0.745,-3.933 1.336,-8.032 2.394,-11.905 1.863,-0.436 3.651,-1.202 5.243,-2.305 1.605,-1.113 2.844,-2.424 3.685,-3.898 1.859,-3.257 1.602,-6.797 1.377,-9.921 -0.062,-0.859 -0.121,-1.671 -0.135,-2.447 -0.048,-2.536 1.068,-5 2.297,-5.07 0.427,-0.019 1.092,0.179 1.683,0.371 2.523,0.822 4.092,1.899 4.304,2.956 0.083,0.413 0.02,1.055 -0.047,1.735 -0.089,0.908 -0.19,1.937 -0.044,3.076 0.38,2.951 2.346,5.658 5.394,7.427 1.807,1.05 3.671,1.637 5.473,2.204 0.425,0.133 0.851,0.267 1.272,0.407 2.3,0.763 4.545,1.753 6.693,2.923 -2.145,6.944 -3.253,14.292 -4.56,21.474 -1.421,7.806 -3.134,15.556 -4.847,23.303 -1.298,5.869 -2.595,11.737 -3.893,17.606 -3.578,16.184 -7.19,32.458 -13.158,47.902 -9.729,-2.494 -19.629,-4.321 -29.609,-5.454 -5.45,-0.618 -11.008,-1.051 -16.123,-3.032 -0.267,-0.103 -0.532,-0.212 -0.798,-0.323 3.711,-10.357 5.168,-21.7 9.463,-31.912 3.294,-7.834 8.203,-14.865 12.257,-22.334 C -6.123,22.547 -2.168,11.444 0,0"
             style="fill:#5e3822;fill-opacity:1;fill-rule:nonzero;stroke:none"
             id="path134" />
        </g>
        <g
           id="g136"
           transform="translate(197.7555,289.9097)">
          <path
             d="m 0,0 c -11.267,0.022 -22.654,-0.075 -33.585,-2.793 -11.075,-2.754 -21.799,-8.499 -28.382,-17.821 -1.935,-2.74 -3.529,-6.224 -2.357,-9.367 0.556,-1.493 1.672,-2.698 2.761,-3.862 5.237,-5.594 11.081,-11.517 18.665,-12.614 4.336,-0.627 8.725,0.432 12.942,1.617 8.728,2.45 17.295,5.473 25.627,9.044 1.088,0.466 2.219,0.94 3.371,1.364 -2.961,7.28 -2.421,15.431 -1.479,22.48 C -1.924,-8.111 -1.222,-4.007 0,0"
             style="fill:#5e3822;fill-opacity:1;fill-rule:nonzero;stroke:none"
             id="path138" />
        </g>
        <g
           id="g140"
           transform="translate(176.8852,606.1497)">
          <path
             d="m 0,0 c 5.811,-1.907 12.142,-2.099 18.445,-2.163 7.099,-0.072 10.904,-5.213 16.827,-8.047 6.034,-2.888 12.758,-3.943 18.61,-7.263 5.241,-2.974 9.609,-7.235 14.376,-10.869 6.548,-4.99 13.8,-7.632 21.352,-10.707 8.228,-3.35 16.68,-6.446 25.514,-7.714 1.577,-0.226 3.165,-0.395 4.749,-0.578 -0.319,12.885 3.478,25.835 10.449,36.703 -0.026,-0.023 -0.052,-0.046 -0.079,-0.069 -3.057,-2.712 -7.539,-2.925 -10.87,-0.557 -5.899,4.197 -13.239,6.483 -20.456,7.783 -9.623,1.733 -19.515,2.04 -28.942,4.637 C 63.397,2.968 57.171,5.864 51.103,8.983 43.701,12.789 36.414,16.997 30.263,22.604 22.616,29.575 16.157,39.014 6.085,41.389 1.181,42.545 -4.934,41.191 -6.993,36.592 -7.468,35.53 -7.719,34.324 -8.516,33.469 -12.812,28.879 -19.934,35.083 -19.235,25.062 -18.695,17.309 -14.872,9.838 -8.9,4.865 -6.145,2.571 -3.149,1.034 0,0"
             style="fill:#5e3822;fill-opacity:1;fill-rule:nonzero;stroke:none"
             id="path142" />
        </g>
        <g
           id="g144"
           transform="translate(250.9071,310.2586)">
          <path
             d="m 0,0 c -3.721,1.293 -7.568,2.63 -11.12,4.869 -1.923,1.212 -3.857,2.755 -6.087,4.856 -1.899,1.789 -3.699,3.686 -5.401,5.666 l -0.027,-0.115 c -0.496,-2.128 -0.988,-4.252 -1.543,-6.423 l -0.217,-0.831 c -0.08,-0.291 -0.148,-0.555 -0.257,-0.91 l -0.075,-0.248 -0.049,-0.185 -0.099,-0.37 -0.197,-0.739 -0.206,-0.736 -0.18,-0.745 c -0.114,-0.499 -0.267,-0.985 -0.373,-1.488 -0.484,-1.99 -0.881,-4.015 -1.288,-6.055 -0.769,-4.094 -1.357,-8.301 -2.055,-12.592 -0.351,-2.146 -0.734,-4.313 -1.189,-6.493 -0.228,-1.092 -0.472,-2.184 -0.751,-3.281 -0.134,-0.543 -0.289,-1.107 -0.438,-1.632 -0.141,-0.523 -0.273,-1.031 -0.193,-1.61 -0.429,0.402 -0.679,1.016 -0.851,1.58 -0.171,0.571 -0.319,1.102 -0.461,1.654 -0.291,1.095 -0.534,2.193 -0.766,3.293 -0.446,2.201 -0.784,4.416 -1.019,6.65 -0.166,1.717 -0.269,3.444 -0.307,5.18 -2.949,-1.059 -6.046,-3.255 -7.72,-5 -1.02,-1.062 -1.826,-2.349 -3.017,-3.214 -1.862,-4.552 -2.767,-9.59 -3.387,-14.227 -0.893,-6.681 -1.362,-13.687 1.232,-19.658 0.077,-0.175 0.166,-0.345 0.248,-0.519 1.778,0.076 3.508,-0.22 5.106,-1.11 1.626,-0.906 2.89,-2.336 4.396,-3.432 3.371,-2.454 8.003,-3.067 11.897,-1.575 27.552,10.562 52.697,24.935 68.21,50.036 0.024,0.038 0.049,0.073 0.073,0.111 C 37.765,-9.171 33.632,-8.86 29.516,-8.24 19.271,-6.696 9.474,-3.292 0,0"
             style="fill:#5e3822;fill-opacity:1;fill-rule:nonzero;stroke:none"
             id="path146" />
        </g>
        <g
           id="g148"
           transform="translate(404.0319,596.863)">
          <path
             d="m 0,0 c 0.653,-0.753 1.208,-1.535 1.687,-2.34 l 1.345,1.249 c -4.457,5.361 -6.765,11.595 -6.399,17.498 0.531,8.56 7.3,15.887 15.091,16.332 0.299,0.018 0.604,0.026 0.911,0.035 0.494,0.013 1.224,0.032 1.507,0.126 0.144,0.227 0.337,0.823 0.467,1.228 l 0.084,0.256 c 2.279,6.962 7.201,12.85 14.234,17.026 6.394,3.798 14.057,5.834 21.633,5.763 11.874,-0.129 22.842,-4.553 32.032,-9.568 0.496,1.618 0.869,3.248 0.745,4.909 C 82.853,59.027 75.432,62.473 69.02,63.718 49.429,67.523 28.038,63.13 12.563,50.527 -0.695,39.73 -8.994,22.786 -8.844,5.807 -5.768,4.535 -2.468,2.843 0,0"
             style="fill:#5e3822;fill-opacity:1;fill-rule:nonzero;stroke:none"
             id="path150" />
        </g>
        <g
           id="g152"
           transform="translate(423.1837,341.2117)">
          <path
             d="M 0,0 C 11.711,6.647 25.696,10.623 41.295,11.829 37.485,17.21 33.219,22.32 28.5,26.737 22.03,32.793 15.183,38.042 10.601,45.669 4.657,45.819 -1.648,43.482 -7.79,41.207 -8.443,40.965 -9.093,40.724 -9.739,40.487 -29.633,33.202 -50.987,29.515 -72.298,29.515 c -14.009,0 -27.997,1.592 -41.547,4.803 -4.545,1.076 -9.859,2.51 -14.819,4.978 -6.882,3.424 -12.435,8.373 -17.172,14.299 l -0.211,-0.12 c -0.213,0.375 -0.41,0.758 -0.596,1.147 -1.932,2.511 -3.726,5.188 -5.422,7.988 -2.104,-1.658 -4.016,-3.684 -5.44,-5.586 -2.52,-3.365 -4.023,-7.359 -5.736,-11.198 -8.17,-18.304 -21.542,-33.752 -31.476,-51.16 2.791,-4.082 6.01,-7.87 9.603,-11.256 1.95,-1.837 3.528,-3.102 5.115,-4.104 2.935,-1.85 6.432,-3.065 9.814,-4.239 9.2,-3.197 18.712,-6.502 28.374,-7.959 6.117,-0.922 12.384,-1.115 18.637,-1.024 4.641,2.371 10.145,3.541 15.204,6.488 11.288,6.576 23.158,13.747 29.155,25.353 5.677,-11.341 17.24,-15.149 26.844,-23.434 5.054,-4.359 9.611,-9.294 13.556,-14.679 1.581,-2.157 3.015,-3.743 4.404,-4.946 1.344,6.673 3.939,13.278 7.728,19.582 C -20.024,-15.142 -10.69,-6.068 0,0"
             style="fill:#5e3822;fill-opacity:1;fill-rule:nonzero;stroke:none"
             id="path154" />
        </g>
        <g
           id="g156"
           transform="translate(484.8857,638.1464)">
          <path
             d="M 0,0 C -8.75,4.917 -19.245,9.397 -30.363,9.517 -42.107,9.656 -56.096,3.365 -60.105,-8.881 l -0.076,-0.235 c -0.403,-1.246 -0.955,-2.953 -2.492,-4.212 -1.778,-1.455 -3.856,-1.511 -5.374,-1.552 -0.242,-0.007 -0.483,-0.012 -0.719,-0.026 -5.074,-0.29 -8.799,-5.593 -9.095,-10.365 -0.309,-4.989 2.158,-10.463 6.767,-15.017 l 2.366,-2.339 -8.204,-7.617 c 0.693,-5.079 -0.391,-10.553 -1.396,-15.615 -1.478,-7.441 -2.874,-14.469 0.928,-19.16 1.615,-1.993 4.146,-3.409 6.593,-4.778 l 8.389,-4.692 c 0.483,-0.27 1.618,-0.904 2.015,-0.841 0.363,0.056 1.163,0.858 1.693,1.388 0.16,0.161 0.32,0.321 0.48,0.477 3.207,3.129 7.216,5.129 10.753,6.893 9.429,4.702 20.351,10.143 31.993,12.693 -1.631,5.222 7.671,8.029 9.564,12.497 0.714,1.685 1.008,3.513 1.295,5.321 0.83,5.212 1.66,10.423 2.49,15.635 0.778,4.888 1.176,9.547 2.658,14.242 1.509,4.781 4.902,9.637 3.466,14.87 C 3.132,-8.19 0.598,-5.669 0.05,-2.477 -0.092,-1.646 -0.092,-0.821 0,0"
             style="fill:#5e3822;fill-opacity:1;fill-rule:nonzero;stroke:none"
             id="path158" />
        </g>
        <g
           id="g160"
           transform="translate(604.9264,88.1346)">
          <path
             d="m 0,0 c -5.796,3.706 -12.417,5.875 -18.62,8.85 -6.498,3.117 -12.561,7.141 -17.959,11.917 -4.568,4.043 -8.686,8.661 -11.699,13.966 -0.847,1.491 -1.59,3.026 -2.265,4.589 -2.227,-1.158 -4.54,-2.143 -6.901,-2.926 -0.453,-0.15 -0.909,-0.294 -1.366,-0.437 -1.537,-0.484 -2.99,-0.941 -4.185,-1.636 -1.282,-0.743 -2.153,-1.79 -2.274,-2.73 -0.054,-0.421 0.004,-1.012 0.065,-1.638 0.1,-1.011 0.224,-2.268 -0.046,-3.612 -0.707,-3.527 -3.594,-6.139 -8.58,-7.763 -1.032,-0.335 -2.231,-0.686 -3.582,-0.686 -0.144,0 -0.289,0.004 -0.436,0.012 -5.53,0.317 -8.407,6.189 -8.306,11.552 0.018,0.947 0.085,1.883 0.151,2.788 0.108,1.498 0.212,2.945 0.066,4.203 -5.38,-4.12 -12.078,-9.68 -15.764,-14.989 -3.962,-5.708 -6.032,-13.182 -3.681,-19.72 2.767,-7.695 10.879,-12.253 18.876,-13.963 7.997,-1.71 16.304,-1.253 24.385,-2.506 19.056,-2.955 37.056,-15.34 56.044,-11.98 C 11.231,-23.647 14.909,-9.532 0,0"
             style="fill:#5e3822;fill-opacity:1;fill-rule:nonzero;stroke:none"
             id="path162" />
        </g>
        <g
           id="g164"
           transform="translate(434.7323,417.57)">
          <path
             d="m 0,0 c 0.865,4.663 3.207,9.041 6.606,12.348 11.458,2.407 16.05,16.085 24.753,23.917 1.937,1.744 4.08,3.186 6.353,4.417 -2.586,0.52 -5.138,0.641 -7.689,0.207 C 23.016,39.695 17.174,34.335 12.249,29.405 3.265,20.413 -5.111,10.664 -12.646,0.429 c -2.151,-2.921 -4.156,-5.803 -5.044,-8.943 -0.799,-2.826 -0.757,-6.013 -0.713,-9.386 0.045,-3.475 0.086,-7.026 -0.794,-10.408 5.786,2.107 12.023,4.118 18.306,3.988 -0.143,0.663 -0.398,1.311 -0.742,1.856 -1.177,1.863 -3.015,3.461 -3.292,5.648 -0.35,2.753 1.89,5.065 3.062,7.581 C -0.533,-6.377 -0.575,-3.1 0,0"
             style="fill:#5e3822;fill-opacity:1;fill-rule:nonzero;stroke:none"
             id="path166" />
        </g>
        <g
           id="g168"
           transform="translate(291.0947,434.5772)">
          <path
             d="m 0,0 c 9.625,10.513 16.049,19.681 20.217,28.853 0.414,0.91 0.829,1.878 1.236,2.893 C 17.963,27.481 12.34,24.466 7.827,20.934 -3.145,12.349 -8.468,-0.956 -12.032,-14.728 -9.157,-9.909 -5.368,-5.81 -1.686,-1.83 -1.123,-1.22 -0.559,-0.611 0,0"
             style="fill:#5e3822;fill-opacity:1;fill-rule:nonzero;stroke:none"
             id="path170" />
        </g>
        <g
           id="g172"
           transform="translate(303.1749,557.7759)">
          <path
             d="m 0,0 c 0.164,-0.039 0.328,-0.071 0.491,-0.112 4.88,-1.237 9.352,-3.684 13.764,-6.107 6.662,-3.66 30.436,-11.314 22.562,-23.008 -2.211,-3.284 -5.882,-5.481 -7.665,-9.016 -3.597,-7.134 1.943,-16.249 -1.232,-23.582 -1.517,-3.502 -4.733,-5.895 -7.801,-8.348 -0.007,-10.626 -3.129,-20.095 -6.18,-26.81 -4.454,-9.799 -11.228,-19.496 -21.319,-30.519 -0.566,-0.618 -1.137,-1.236 -1.709,-1.853 -4.126,-4.462 -8.023,-8.675 -10.586,-13.704 -2.181,-4.282 -3.593,-10.423 -1.488,-15.511 4.298,-5.463 9.273,-9.971 15.347,-12.993 4.381,-2.18 9.257,-3.49 13.449,-4.483 32.152,-7.618 66.882,-5.79 98.092,5.116 l -1.013,0.702 c 2.187,3.152 2.13,7.469 2.071,12.039 -0.049,3.68 -0.098,7.486 0.953,11.203 1.177,4.164 3.631,7.711 6.044,10.988 7.724,10.49 16.31,20.483 25.518,29.701 6.033,6.039 12.778,11.825 21.213,13.262 6.246,1.064 12.369,-0.46 17.837,-2.671 2.463,0.825 4.966,1.552 7.441,2.262 7.743,2.221 16.373,4.374 23.558,0.732 0.289,-0.147 0.573,-0.302 0.854,-0.463 0.445,2.927 1.06,5.823 1.86,8.663 4.045,14.367 12.731,27.536 24.205,37.22 -12.605,10.542 -27.344,18.539 -43.087,23.258 -4.662,1.398 -10.265,3.385 -11.154,8.17 -0.483,2.598 0.684,5.296 0.178,7.889 -0.701,3.592 -4.271,5.787 -7.565,7.383 -1.032,0.5 -2.102,1.016 -3.125,1.594 -11.126,-1.696 -22.362,-6.885 -34.434,-12.906 -3.272,-1.632 -6.655,-3.318 -9.148,-5.752 -0.14,-0.137 -0.28,-0.277 -0.421,-0.418 -1.184,-1.185 -2.804,-2.808 -5.227,-3.183 -0.343,-0.053 -0.68,-0.077 -1.008,-0.077 -2.137,0 -3.949,1.014 -5.093,1.654 l -8.388,4.692 c -2.835,1.586 -6.048,3.382 -8.435,6.328 -4.631,5.714 -4.27,13.052 -3.039,19.888 1.25,6.94 4.466,15.623 0.81,22.382 -1.787,3.305 -4.312,3.092 -7.513,3.172 -4.05,0.102 -7.849,1.746 -11.736,2.692 -4.575,1.114 -9.201,2.023 -13.868,2.646 -6.262,0.835 -13.015,0.674 -18.614,-2.581 -2.997,-1.747 -5.713,-4.381 -9.169,-4.686 -5.763,-0.508 -9.842,5.49 -15.206,7.659 -1.499,0.606 -2.942,0.909 -4.338,0.971 C 5.541,32.09 -0.748,15.926 0,0"
             style="fill:#5e3822;fill-opacity:1;fill-rule:nonzero;stroke:none"
             id="path174" />
        </g>
        <g
           id="g176"
           transform="translate(865.8942,647.1418)">
          <path
             d="M 0,0 C -6.134,5.698 -13.295,8.432 -21.271,8.099 -36.738,7.473 -55.054,-4.288 -75.71,-26.855 c -20.856,-22.787 -15.787,-29.974 -7.39,-41.88 2.134,-3.027 4.551,-6.453 6.773,-10.508 l -87.837,-99.891 c -9.646,0.215 -20.01,-3.615 -29.837,-5.445 -20.391,-3.799 -42.357,1.955 -58.267,15.262 -4.454,3.726 -8.628,8.11 -14.11,10.023 -6.899,2.408 -14.452,0.447 -21.757,0.281 -10.257,-0.233 -18.333,1.759 -25.103,9.469 -2.646,3.014 -5.448,5.889 -8.384,8.622 -10.872,-8.915 -19.113,-21.224 -22.902,-34.683 -0.962,-3.416 -1.638,-6.92 -2.04,-10.463 6.439,-2.79 13.86,-0.249 20.42,2.3 13.419,-3.036 22.76,-13.241 35.504,-18.427 13.247,-5.389 27.922,-5.745 42.221,-6.026 14.352,-0.283 27.992,-0.551 42.344,-0.833 l 0.714,-0.015 c 10.068,-2.796 9.721,-4.895 17.599,-11.759 1.288,-1.122 2.577,-2.317 4.176,-2.916 3.564,-1.334 7.595,0.716 10.128,3.555 2.534,2.839 4.093,6.409 6.388,9.445 4.605,6.094 11.825,9.635 17.131,15.129 1.552,1.607 2.996,3.529 3.142,5.758 0.065,0.996 -0.14,1.942 -0.53,2.825 l 78.992,100.517 c 10.302,-4.647 17.013,-7.39 24.351,-5.503 7.287,1.872 15.335,8.292 28.703,22.898 15.277,16.691 23.51,29.443 25.91,40.13 C 13.052,-18.198 9.675,-8.986 0,0"
             style="fill:#5e3822;fill-opacity:1;fill-rule:nonzero;stroke:none"
             id="path178" />
        </g>
        <g
           id="g180"
           transform="translate(1371.3311,171.5758)">
          <path
             d="m 0,0 c 1.32,3.813 2.654,7.723 3.787,11.588 1.446,4.934 1.961,10.262 2.369,15.549 0.223,2.882 0.414,5.753 0.706,8.54 0.079,0.749 0.157,1.508 0.031,2.25 -0.412,2.437 -8.29,11.827 -10.831,11.237 -0.143,-0.033 -0.286,-0.069 -0.43,-0.097 -0.231,-0.066 -0.465,-0.124 -0.7,-0.175 -0.234,-0.057 -0.471,-0.102 -0.71,-0.146 -1.901,-0.392 -3.791,-0.993 -5.637,-1.788 -1.846,-0.795 -3.645,-1.79 -5.365,-2.984 l -1.276,-0.933 -1.248,-1.005 c -0.388,-0.365 -0.804,-0.718 -1.213,-1.084 -0.381,-0.386 -0.78,-0.769 -1.188,-1.157 0.176,0.526 0.361,1.057 0.564,1.585 0.233,0.507 0.46,1.028 0.714,1.538 l 0.842,1.489 c 0.317,0.472 0.636,0.951 0.967,1.425 1.365,1.858 3.025,3.535 4.903,4.969 3.191,2.438 6.533,2.803 10.238,3.91 6.087,1.82 11.961,6.259 17.499,9.338 2.365,1.315 4.732,3.054 4.568,6.062 -0.073,1.335 -1.463,2.662 -2.881,3.906 L -1.244,88.89 c -6.805,5.969 -14.216,12.467 -22.545,17.089 -2.869,-2.313 -5.7,-4.671 -8.453,-7.119 C -42.141,90.058 -51.018,80.108 -58.639,69.274 -61.789,64.797 -63,60.133 -64.01,54.752 -65.001,49.471 -62.527,44.117 -59.274,39.84 -45.012,21.092 -15.83,17.209 0,0"
             style="fill:#5e3822;fill-opacity:1;fill-rule:nonzero;stroke:none"
             id="path182" />
        </g>
        <g
           id="g184"
           transform="translate(1319.1616,318.6902)">
          <path
             d="m 0,0 c 5.349,4.797 8.908,12.042 10.021,20.401 0.917,6.887 0.252,14.649 -2.034,23.731 -0.474,1.881 -1.034,3.82 -2.201,5.048 -0.91,0.957 -2.262,1.585 -3.684,2.197 -3.311,1.423 -7.231,2.884 -11.207,2.926 -0.06,0 -0.12,0.001 -0.18,0.001 -4.661,0 -9.225,-1.878 -13.642,-3.696 -8.544,-3.515 -18.128,-7.461 -25.139,-14.139 0.517,-0.947 0.906,-1.962 1.135,-3.034 1.289,-6.026 -2.464,-11.995 -6.853,-16.32 -4.389,-4.324 -9.668,-7.921 -12.833,-13.208 -3.147,-5.256 -3.834,-11.56 -5.284,-17.512 -3.589,-14.74 -12.089,-27.823 -21.662,-39.592 -9.573,-11.768 -20.35,-22.538 -29.546,-34.604 -7.238,-9.495 -13.479,-19.77 -21.417,-28.689 -7.938,-8.918 -17.976,-16.587 -29.697,-18.856 -3.311,-0.641 -6.774,-0.866 -10.052,-1.59 -39.641,11.894 -118.572,35.577 -118.636,35.596 -0.585,0.046 -6.594,15.805 -8.089,17.712 -7.178,9.16 -18.758,15.568 -29.345,19.859 -13.099,5.308 -27.356,8.412 -41.333,10.314 -12.977,1.765 -18.272,-8.906 -16.868,-20.352 1.813,-14.781 13.594,-25.985 25.76,-33.362 9.659,-5.858 20.358,-9.766 31.074,-13.343 13.141,-4.386 26.557,-6.097 35.255,6.661 l 111.037,-33.486 c -0.184,-2.002 0.35,-3.944 1.877,-5.379 l 2.698,-0.461 c 1.456,-0.717 3.187,-0.76 4.596,-1.566 0.69,-0.394 1.268,-0.953 1.895,-1.439 2.955,-2.292 6.841,-2.895 10.542,-3.424 2.652,-0.378 6.443,-0.577 7.66,1.809 -0.3,3.018 2.633,5.437 5.553,6.258 2.919,0.821 6.072,0.671 8.919,1.714 3.18,1.165 5.643,3.685 7.989,6.127 6.795,7.072 13.59,14.144 20.384,21.216 3.167,3.297 6.347,6.605 9.927,9.448 3.254,2.585 6.815,4.766 10.051,7.374 4.404,3.551 8.144,7.843 11.859,12.11 12.227,14.045 24.454,28.09 36.681,42.135 2.991,3.436 5.202,7.207 7.983,10.811 2.965,3.843 5.608,8.076 6.64,12.88 0.68,3.163 0.634,6.436 1.087,9.64 0.983,6.957 6.178,10.371 10.452,15.463 1.488,1.774 2.94,3.598 4.377,5.472 1.443,1.873 2.842,3.805 4.346,5.76 -0.348,-2.443 -1.04,-4.809 -1.914,-7.109 -0.88,-2.299 -1.969,-4.523 -3.232,-6.649 -1.263,-2.126 -2.698,-4.156 -4.287,-6.062 -0.433,-0.519 -0.87,-1.036 -1.315,-1.546 3.382,1.506 7.198,2.375 10.829,3.127 2.419,0.501 4.962,0.988 7.407,0.889 1.75,1.328 3.585,2.519 5.369,3.667 C -4.51,-3.438 -2.113,-1.895 0,0"
             style="fill:#5e3822;fill-opacity:1;fill-rule:nonzero;stroke:none"
             id="path186" />
        </g>
        <g
           id="g188"
           transform="translate(1219.3665,415.9576)">
          <path
             d="M 0,0 C 6.44,0.266 12.576,3.78 17.99,6.879 L 21.897,9.116 21.398,4.642 C 20.86,-0.18 21.016,-6.246 24.815,-7.759 c 0.935,-0.372 1.544,-0.287 2.467,-0.159 1.392,0.194 3.297,0.46 5.591,-1.307 1.47,-1.132 2.782,-3.051 4.127,-6.039 0.073,-0.163 0.201,-0.257 0.379,-0.279 0.133,-0.017 0.325,0.004 0.478,0.197 1.822,2.292 4.417,3.799 7.12,4.135 2.809,0.35 5.781,-0.544 8.154,-2.452 2.374,-1.907 3.887,-4.618 4.15,-7.436 0.103,-1.109 0.034,-2.147 -0.033,-3.152 -0.058,-0.861 -0.113,-1.675 -0.044,-2.417 0.1,-1.077 0.653,-2.081 1.207,-2.193 0.4,-0.082 1.146,0.165 1.427,0.258 3.383,1.12 6.534,3.439 8.808,6.16 4.765,5.705 2.735,16.389 2.275,23.195 -0.149,2.201 -0.428,4.311 -1.577,6.233 -1.121,1.876 -2.917,3.342 -3.218,5.634 l -0.118,0.642 c 1.914,0.768 4.202,0.86 5.678,2.301 1.755,1.715 1.576,4.615 0.714,6.911 -0.861,2.297 -2.275,4.418 -2.648,6.843 5.675,-0.878 11.29,-2.151 16.788,-3.808 0.332,-0.1 0.692,-0.222 0.876,-0.516 0.151,-0.24 0.149,-0.541 0.143,-0.825 -0.075,-3.393 -0.15,-6.787 -0.225,-10.18 0.658,0.333 1.343,0.628 2.053,0.864 0.815,0.275 1.543,0.431 2.145,0.58 0.607,0.146 1.085,0.282 1.47,0.46 0.81,0.345 1.671,1.17 2.548,2.178 0.892,1.036 1.822,2.117 2.747,3.162 l 1.404,1.571 c 0.475,0.521 0.959,1.034 1.403,1.543 0.883,1.018 1.713,2.088 1.956,3.502 0.157,-0.691 0.138,-1.453 -0.024,-2.176 -0.156,-0.727 -0.409,-1.432 -0.707,-2.095 -0.298,-0.67 -0.608,-1.299 -0.907,-1.935 l -0.931,-1.89 c -0.633,-1.26 -1.254,-2.491 -1.926,-3.757 -0.351,-0.64 -0.73,-1.314 -1.228,-1.982 -2.335,-3.128 -6.572,-4.806 -9.673,-7.127 -3.72,-2.783 -7.683,-6.294 -9.68,-10.587 -0.748,-1.606 -3.632,-7.334 -1.155,-8.672 0.418,-0.226 0.921,-0.419 1.414,-0.608 l 15.692,-6.012 c 3.423,-1.312 6.963,-2.668 10.534,-3.177 7.905,-1.127 15.327,1.91 20.162,4.656 2.258,1.283 4.419,2.752 6.511,4.329 -5.663,2.509 -12.18,2.557 -18.427,2.539 -0.132,0 -0.27,-0.006 -0.408,-0.021 0,0 0.323,1.5 0.323,1.5 0.515,2.395 2.216,4.514 3.237,6.715 1.188,2.565 2.1,5.258 2.726,8.015 1.442,6.357 0.532,12.134 0.183,18.488 -0.285,5.176 -0.281,10.907 -4.629,14.531 -3.214,2.678 -7.308,4.036 -11.354,5.098 -5.657,1.486 -11.436,2.511 -17.26,3.06 -4.152,0.391 -8.332,0.542 -12.45,1.2 -5.927,0.947 -11.632,2.927 -17.302,4.898 -1.453,0.506 -2.977,1.058 -3.98,2.225 -1.276,1.484 -1.416,3.597 -2.051,5.449 -1.781,5.202 -7.256,7.998 -11.127,11.904 -5.075,5.12 -8.206,12.948 -15.132,14.949 -5.193,1.5 -10.96,-1.146 -14.286,-5.408 C 5.879,77.694 4.648,72.135 4.429,66.734 4.306,63.677 4.58,60.338 6.627,58.064 8.196,56.32 10.53,55.518 12.495,54.237 17.613,50.9 20.169,44.36 25.634,41.628 27.388,40.751 29.33,40.334 31.249,39.924 40.955,37.853 50.662,35.781 60.368,33.71 57.237,30.707 55.553,28.068 51.236,27.244 47.063,26.447 42.554,27.391 38.34,27.338 29.483,27.227 21.075,23.68 12.932,20.192 10.505,19.152 8,18.058 6.213,16.114 3.401,13.053 2.929,8.549 0.99,4.872 0.206,3.385 -0.824,2.024 -1.433,0.457 -1.488,0.315 -1.535,0.17 -1.582,0.025 -1.049,-0.013 -0.52,-0.022 0,0"
             style="fill:#5e3822;fill-opacity:1;fill-rule:nonzero;stroke:none"
             id="path190" />
        </g>
        <g
           id="g192"
           transform="translate(1384.9707,216.4957)">
          <path
             d="m 0,0 c -0.43,-1.1 -0.791,-2.217 -1.099,-3.35 2.294,-4.508 7.112,-8.073 13.271,-9.797 5.879,-1.646 12.227,-1.594 18.366,-1.546 l 0.373,0.003 33.749,0.272 c 6.198,11.566 9.848,25.052 17.45,35.461 -1.25,-0.236 -2.513,-0.397 -3.782,-0.475 -0.694,-0.043 -1.385,-0.063 -2.072,-0.063 -3.982,0 -7.866,0.668 -11.812,1.419 -10.947,2.083 -21.933,4.692 -32.651,7.755 -5.015,1.434 -10.62,3.363 -13.672,8.138 -1.569,2.454 -2.145,5.163 -2.702,7.783 -0.27,1.268 -0.524,2.467 -0.883,3.604 -1.191,3.783 -3.656,7.187 -6.04,10.478 L -1.583,73.599 c -1.365,1.885 -2.777,3.834 -4.55,5.136 -1.324,0.972 -3.052,1.288 -4.663,1.325 -1.721,0.041 -2.609,-0.218 -3.94,-1.251 -2.144,-1.663 -4.259,-3.373 -6.43,-5.001 -1.23,-0.958 -2.461,-1.917 -3.691,-2.875 -0.501,-0.391 -3.691,-2.344 -3.691,-2.876 -1.677,-1.306 -3.352,-2.613 -5.022,-3.928 8.037,-4.738 15.14,-10.967 21.701,-16.722 L 5.084,32.534 C 6.673,31.14 9.332,28.807 9.515,25.44 9.634,23.269 8.734,21.463 7.522,19.898 L 7.596,19.843 C 5.031,16.387 3.77,12.068 2.435,7.495 1.717,5.036 0.975,2.494 0,0"
             style="fill:#5e3822;fill-opacity:1;fill-rule:nonzero;stroke:none"
             id="path194" />
        </g>
        <g
           id="g196"
           transform="translate(1221.6014,387.519)">
          <path
             d="m 0,0 c -1.526,-3.093 -2.237,-7.16 0.053,-9.739 1.073,-1.209 2.624,-1.864 3.909,-2.843 4.135,-3.148 4.97,-9.035 6.14,-13.936 0.239,-1.003 0.667,-1.958 1.314,-2.76 3.239,-4.015 8.669,-1.069 12.825,1.126 4.679,2.471 10.113,3.89 15.3,2.849 2.591,-0.52 5.084,-1.748 7.068,-3.49 7.577,7.101 17.461,11.169 26.285,14.8 4.668,1.921 9.963,4.101 15.609,4.038 4.783,-0.05 9.238,-1.695 12.965,-3.298 1.802,-0.774 3.687,-1.663 5.191,-3.246 1.93,-2.03 2.726,-4.72 3.321,-7.082 2.43,-9.654 3.128,-17.979 2.133,-25.45 -1.257,-9.438 -5.341,-17.678 -11.501,-23.201 -2.384,-2.138 -5.048,-3.854 -7.624,-5.512 -0.774,-0.498 -1.526,-0.986 -2.265,-1.477 1.116,-0.687 2.158,-1.504 3.303,-2.146 6.243,-3.501 13.924,-1.397 20.645,-2.281 9.142,-1.203 17.778,-3.472 27.115,-2.881 4.298,0.272 8.685,1.025 12.855,-0.051 1.874,-0.484 3.571,-1.265 5.129,-2.266 6.979,-4.487 11.151,-13.397 15.798,-19.814 2.477,-3.419 5.284,-7.295 6.698,-11.786 0.424,-1.346 0.714,-2.709 0.994,-4.026 0.494,-2.324 0.96,-4.518 2.082,-6.273 2.192,-3.43 6.674,-4.945 11.076,-6.203 10.587,-3.026 21.437,-5.603 32.249,-7.66 4.33,-0.824 8.563,-1.544 12.75,-1.284 20.979,1.294 25.574,30.517 23.83,46.879 -3.618,33.945 -25.691,56.514 -54.653,72.729 -14.271,7.989 -29.516,13.979 -44.908,19.416 -1.282,0.453 -29.91,13.508 -32.625,18.361 -0.244,0.436 -0.815,0.55 -1.213,0.248 -2.286,-1.735 -4.67,-3.359 -7.194,-4.793 -4.632,-2.631 -11.412,-5.493 -18.976,-5.493 -1.341,0 -2.706,0.09 -4.089,0.287 -4.081,0.581 -7.865,2.031 -11.525,3.433 l -15.692,6.013 c -0.213,0.082 -0.439,0.169 -0.67,0.263 C 73.418,10.48 73.08,9.515 72.674,8.563 69.971,2.233 65.001,-2.53 59.039,-4.505 c -0.79,-0.261 -1.695,-0.507 -2.675,-0.507 -0.356,0 -0.721,0.033 -1.095,0.108 -3.007,0.609 -4.603,3.578 -4.852,6.252 -0.102,1.106 -0.033,2.143 0.034,3.145 0.058,0.863 0.112,1.678 0.043,2.421 -0.149,1.594 -1.046,3.161 -2.461,4.298 -1.416,1.138 -3.138,1.677 -4.727,1.479 -1.525,-0.19 -3.022,-1.081 -4.106,-2.444 -1.117,-1.405 -2.848,-2.11 -4.623,-1.888 -1.763,0.221 -3.251,1.319 -3.981,2.939 -0.996,2.212 -1.92,3.657 -2.748,4.294 -0.773,0.596 -1.096,0.55 -2.17,0.401 -1.152,-0.161 -2.731,-0.38 -4.79,0.44 -3.092,1.231 -6.494,4.49 -6.518,12.857 C 9.432,26.594 3.981,24.12 -2.046,23.871 -2.721,23.843 -3.406,23.855 -4.092,23.902 -3.271,18.691 0.837,13.073 4.234,9.377 3.757,5.96 1.526,3.093 0,0"
             style="fill:#5e3822;fill-opacity:1;fill-rule:nonzero;stroke:none"
             id="path198" />
        </g>
        <g
           id="g200"
           transform="translate(1399.4597,127.6474)">
          <path
             d="m 0,0 c -1.252,0.212 -2.547,0.432 -3.849,0.811 -1.233,0.36 -2.381,0.837 -3.492,1.299 -0.366,0.152 -0.732,0.304 -1.1,0.451 -1.358,0.544 -2.732,1.014 -4.185,1.512 -2.17,0.743 -4.414,1.512 -6.578,2.537 -2.245,1.063 -4.147,2.302 -5.698,3.706 0.289,-0.411 0.419,-0.822 0.56,-0.907 -3.345,-3.326 -6.692,-6.653 -10.038,-9.98 -4.805,-4.777 -10.038,-13.878 -1.085,-17.816 2.413,-1.061 5.119,-1.199 7.755,-1.246 15.585,-0.281 25.697,4.156 32.209,18.538 -0.35,0.135 -0.701,0.263 -1.056,0.37 C 2.365,-0.4 1.216,-0.206 0,0"
             style="fill:#5e3822;fill-opacity:1;fill-rule:nonzero;stroke:none"
             id="path202" />
        </g>
        <g
           id="g204"
           transform="translate(1526.986,151.7294)">
          <path
             d="M 0,0 C 1.441,0.625 2.918,0.762 4.22,0.884 4.865,0.944 5.474,1 6.031,1.108 L 6.039,1.11 c 4.326,0.847 8.92,6.944 4.476,10.255 L -0.348,19.46 c -0.297,0.222 -0.62,0.452 -0.99,0.462 -0.354,0.009 -0.676,-0.187 -0.986,-0.358 -5.487,-3.037 -15.681,-0.431 -21.649,-0.042 -8.862,0.578 -17.726,1.188 -26.606,1.432 -17.759,0.489 -35.696,-0.509 -52.792,-5.683 -2.105,-1.934 -4.072,-4.118 -5.949,-6.441 -2.34,-2.848 -4.542,-5.906 -6.96,-8.856 2.941,3.587 4.038,10.614 7.006,14.887 3.669,5.284 8.193,8.812 13.595,12.128 0.747,0.462 1.437,0.912 2.125,1.41 0.315,0.377 0.631,0.755 0.946,1.133 4.359,5.219 8.464,10.647 12.64,16.015 -10.591,1.047 -21.259,-0.318 -31.902,-0.342 -11.035,-0.024 -24.731,1.205 -32.459,9.954 -0.363,-2.752 -0.566,-5.583 -0.773,-8.487 -1.152,-16.164 -11.022,-32.704 -8.097,-48.851 0.472,-2.608 1.249,-5.255 2.95,-7.288 2.14,-2.555 5.423,-3.796 8.556,-4.934 11.392,-4.138 22.748,-9.657 34.896,-11.118 12.59,-1.514 25.094,1.665 36.997,5.477 11.141,3.567 22.735,6.196 34.342,7.885 3.97,0.578 7.964,1.013 11.972,1.205 1.476,0.07 11.299,-0.915 11.88,-0.168 2.319,2.981 5.062,5.727 7.743,8.28 C -2.862,-1.887 -1.617,-0.701 0,0"
             style="fill:#5e3822;fill-opacity:1;fill-rule:nonzero;stroke:none"
             id="path206" />
        </g>
        <g
           id="g208"
           transform="translate(1572.7008,129.1822)">
          <path
             d="m 0,0 c -1.901,7.414 -5.823,14.498 -5.596,22.149 0.133,4.493 1.71,8.839 1.957,13.328 0.305,5.561 -1.531,11.213 -5.047,15.532 -0.973,1.195 -2.137,2.333 -3.619,2.755 -2.892,0.824 -5.704,-1.272 -8.174,-2.988 -4.108,-2.855 -8.733,-4.958 -13.577,-6.204 -2.174,-0.559 -4.77,-0.406 -7.215,-0.486 1.907,-1.901 4.329,-3.406 6.863,-4.977 0.358,-0.222 0.715,-0.444 1.07,-0.666 1.148,-0.719 2.249,-1.459 3.109,-2.616 1.292,-1.739 1.75,-4.102 1.289,-6.654 -0.891,-4.934 -4.95,-9.048 -9.872,-10.005 -0.779,-0.151 -1.531,-0.221 -2.258,-0.289 -1.057,-0.098 -2.054,-0.191 -2.827,-0.526 -0.87,-0.378 -1.713,-1.181 -2.528,-1.956 -1.746,-1.663 -3.522,-3.41 -5.16,-5.241 1.064,-0.979 1.847,-2.267 2.183,-3.674 0.172,-0.719 0.25,-1.5 0.71,-2.078 1.175,-1.477 3.509,-0.499 5.391,-0.619 3.834,-0.245 5.327,-4.93 6.667,-8.53 4.281,-11.502 16.28,-20.417 15.721,-32.677 -0.093,-2.029 -0.48,-4.301 0.779,-5.895 2.215,-2.802 6.737,-0.682 9.242,1.865 C -0.656,-30.043 3.626,-14.141 0,0"
             style="fill:#5e3822;fill-opacity:1;fill-rule:nonzero;stroke:none"
             id="path210" />
        </g>
      </g>
    </g>
  </g>
</svg>
